<?xml version="1.0" encoding="UTF-8" standalone="no"?>
<!-- Creator: CorelDRAW -->

<svg
   xml:space="preserve"
   width="333mm"
   height="208.125mm"
   style="clip-rule:evenodd;fill-rule:evenodd;image-rendering:optimizeQuality;shape-rendering:geometricPrecision;text-rendering:geometricPrecision"
   viewBox="0 0 333 208.12501"
   version="1.1"
   id="svg1"
   sodipodi:docname="Palm_Island_R_edit.svg"
   inkscape:version="1.4.3 (0d15f75042, 2025-12-25)"
   xmlns:inkscape="http://www.inkscape.org/namespaces/inkscape"
   xmlns:sodipodi="http://sodipodi.sourceforge.net/DTD/sodipodi-0.dtd"
   xmlns="http://www.w3.org/2000/svg"
   xmlns:svg="http://www.w3.org/2000/svg"><sodipodi:namedview
   id="namedview1"
   pagecolor="#ffffff"
   bordercolor="#666666"
   borderopacity="1.0"
   inkscape:showpageshadow="2"
   inkscape:pageopacity="0.0"
   inkscape:pagecheckerboard="0"
   inkscape:deskcolor="#d1d1d1"
   inkscape:document-units="mm"
   inkscape:zoom="1"
   inkscape:cx="624"
   inkscape:cy="369.5"
   inkscape:window-width="1920"
   inkscape:window-height="1032"
   inkscape:window-x="0"
   inkscape:window-y="24"
   inkscape:window-maximized="0"
   inkscape:current-layer="Layer_x0020_1" />
 <defs
   id="defs1">
  <style
   type="text/css"
   id="style1">
   <![CDATA[
    .fil3 {fill:#3C746B}
    .fil4 {fill:#98AF85}
    .fil2 {fill:#C0A062}
    .fil1 {fill:#FFFCC8}
    .fil0 {fill:#00AAE3}
   ]]>
  </style>
 </defs>
 <rect
   style="clip-rule:evenodd;fill:#00aae3;fill-opacity:1;fill-rule:evenodd;stroke-width:0.266518;image-rendering:optimizeQuality;shape-rendering:geometricPrecision;text-rendering:geometricPrecision"
   id="rect2"
   x="0"
   y="112.34966"
   height="96.775002"
   width="333" /><g
   id="Layer_x0020_1"
   inkscape:label="Layer 1"
   inkscape:groupmode="layer"
   transform="translate(61.515308,1.0526466)">
  <metadata
   id="CorelCorpID_0Corel-Layer" />
  <g
   id="_75820928"
   transform="translate(0,11.657583)">
   <path
   id="_76298552"
   class="fil0"
   d="m 92.1988,92.8387 c 4.1978,-0.139 8.4993,-0.2082 12.9053,-0.2082 23.9022,0 44.2664,2.3241 61.0916,7.0074 h 42.8787 v 96.7548 H 0.9254 V 99.6379 h 42.8787 c 6.2444,-1.9078 14.2233,-3.4689 23.9022,-4.7874 3.053,-0.347 9.3157,-1.155 12.4724,-1.4324 l 2.7805,-0.2577 2.7408,-0.1142 3.4831,-0.1713 3.0155,-0.0362 z" />
   <ellipse
   id="_77390240"
   class="fil1"
   cx="105.355"
   cy="117.864"
   rx="84.974197"
   ry="24.4709" />
   <path
   id="_74805232"
   class="fil2"
   d="m 92.0898,93.9636 c -0.2032,2.1014 -0.8459,8.9877 -1.1013,12.3474 l -12.6251,1.4654 c 0.1389,-1.8733 0.8745,-9.2072 1.0343,-10.5666 l 0.2582,-2.3629 0.5396,-3.8472 8.1526,0.1041 -0.1041,-1.7344 -7.7363,-0.4163 c 1.0063,-5.273 1.8389,-9.4016 2.4285,-12.3849 l 7.0078,0.5204 -0.104,-1.7344 -6.6956,-0.9023 c 0.9018,-3.8852 1.8385,-7.7359 2.8448,-11.5867 l 7.0074,0.5896 -0.1041,-1.7344 -6.487,-0.9022 c 1.0059,-3.8508 2.1159,-7.736 3.3648,-11.5867 l 6.5915,1.3181 0.2082,-1.6303 -6.3137,-1.1104 c 1.4222,-4.6137 3.7134,-11.0631 5.2746,-15.122 l 8.383,0.8415 C 98.6405,49.9373 94.0274,72.7126 92.0898,93.9636 Z" />
   <path
   id="_76326712"
   class="fil3"
   d="m 94.7315,34.7996 c -6.106,0.4859 -10.4075,1.5611 -12.9053,3.2611 -5.0652,3.3652 -8.6037,9.5748 -10.5811,18.5945 -0.867,3.9204 -1.4571,8.4997 -1.6996,13.7034 C 63.5784,60.61 60.6643,52.77 60.8032,46.8029 60.9765,31.8162 71.0369,24.5659 90.9848,25.0514 86.5096,20.6454 82.624,18.2866 79.3977,18.0436 74.5062,17.6273 67.9843,21.0617 59.7625,28.3818 65.7988,14.8521 72.3555,7.775 79.3977,7.1506 85.087,6.6651 90.811,9.2669 96.57,14.8869 c -0.0693,-2.047 -0.3123,-3.5733 -0.7286,-4.5792 -2.2203,-3.053 -4.024,-5.1345 -5.377,-6.2101 4.9608,-1.3529 8.8463,-2.0815 11.6908,-2.22 2.8448,-0.1389 6.8344,0.4508 12.0033,1.8037 -2.2548,3.2612 -3.6774,5.7241 -4.267,7.3201 -1.2489,3.0529 -2.1507,5.724 -2.7408,8.0485 5.7938,-2.9837 10.4771,-4.4752 14.0157,-4.4752 6.3485,0 13.5296,5.2382 21.5434,15.7497 -9.3667,-1.9774 -16.5479,-2.9141 -21.5434,-2.8445 -3.1223,0.0693 -5.9323,0.2082 -8.4301,0.4163 6.2789,1.6304 10.8238,3.573 13.5989,5.8974 3.7467,3.1223 5.5852,8.6034 5.5852,16.4438 0,6.2445 -1.0407,13.0093 -3.1222,20.3293 -1.9774,-12.1074 -6.2096,-21.2311 -12.7315,-27.3371 -3.9896,-3.6426 -8.3259,-5.9667 -13.0093,-6.9033 l -0.9359,-0.3293 -0.741,-0.6555 -0.8265,-0.6555 -0.456,-0.6555 -0.57,0.114 -0.741,0.114 -1.1115,0.1995 -0.7695,0.114 -0.9405,0.114 -0.741,0.057 z" />
   <path
   id="_75932552"
   class="fil4"
   d="m 67.6738,94.7909 3.5713,7.4837 -7.9097,-2.6367 6.9037,6.7997 c 3.053,2.0466 7.8405,2.9141 14.3275,2.6711 4.6833,-0.1385 8.6037,-1.2833 11.7952,-3.3648 l 3.8508,-10.0608 -15.7149,11.408 -19.046,-16.9932 z" />
  </g>
 </g>
</svg>
